PathFileType	4	(x/y/z)	S01_P20_T17
DataRate	CameraRate	NumFrames	NumMarkers	Units	OrigDataRate	OrigDataStartFrame	OrigNumFrames
240	240	8	51	mm	240	366	418
Frame#	Time	Sternum			R.Acromium			L.Acromium			Top.Head			R.ASIS			L.ASIS			R.PSIS			L.PSIS			R.Great.Tro			L.Great.Tro			R.Iliac.Crest			L.Iliac.Crest			V.Sacral			R.Thigh.Upper.Post			R.Thigh.Lower.Ant			R.Thigh.Lower.Post			R.Thigh.Upper.Ant			R.Knee.Lat			R.Knee.Med			R.Shank.Upper.Post			R.Shank.Lower.Ant			R.Shank.Lower.Post			R.Shank.Upper.Ant			R.Ankle.Lat			R.Ankle.Med			R.Heel.Upper			R.Heel.Med			R.Heel.Lat			R.Toe.Lat			R.Toe.Med			R.Toe.Tip			L.Thigh.Upper.Post			L.Thigh.Lower.Ant			L.Thigh.Lower.Post			L.Thigh.Upper.Ant			L.Knee.Lat			L.Knee.Med			L.Shank.Upper.Post			L.Shank.Lower.Ant			L.Shank.Lower.Post			L.Shank.Upper.Ant			L.Ankle.Lat			L.Ankle.Med			L.Heel.Upper			L.Heel.Med			L.Heel.Lat			L.Toe.Lat			L.Toe.Med			L.Toe.Tip			Cervical.Spine			Back			
		X1	Y1	Z1	X2	Y2	Z2	X3	Y3	Z3	X4	Y4	Z4	X5	Y5	Z5	X6	Y6	Z6	X7	Y7	Z7	X8	Y8	Z8	X9	Y9	Z9	X10	Y10	Z10	X11	Y11	Z11	X12	Y12	Z12	X13	Y13	Z13	X14	Y14	Z14	X15	Y15	Z15	X16	Y16	Z16	X17	Y17	Z17	X18	Y18	Z18	X19	Y19	Z19	X20	Y20	Z20	X21	Y21	Z21	X22	Y22	Z22	X23	Y23	Z23	X24	Y24	Z24	X25	Y25	Z25	X26	Y26	Z26	X27	Y27	Z27	X28	Y28	Z28	X29	Y29	Z29	X30	Y30	Z30	X31	Y31	Z31	X32	Y32	Z32	X33	Y33	Z33	X34	Y34	Z34	X35	Y35	Z35	X36	Y36	Z36	X37	Y37	Z37	X38	Y38	Z38	X39	Y39	Z39	X40	Y40	Z40	X41	Y41	Z41	X42	Y42	Z42	X43	Y43	Z43	X44	Y44	Z44	X45	Y45	Z45	X46	Y46	Z46	X47	Y47	Z47	X48	Y48	Z48	X49	Y49	Z49	X50	Y50	Z50	X51	Y51	Z51	

366	1.5208	756.12	1239	292.04	652.06	1492.5	472.36	623.34	1510.3	142.12	633.68	1820.2	306.46	709.33	999.2	445.16	701.46	987.17	178.98	469.08	1037.5	359.63	463.62	1033.1	255.64	640.73	950.19	529.28	593.1	939.07	102.08	622.63	1095.6	513.6	592.21	1070.7	107.22	454.24	997.97	307.2	738.48	657.4	495.39	827.98	618.08	461.1	771.47	578.51	468.55	798.24	699.68	489.13	816.96	528.39	456.57	808.02	535.08	315.66	767.25	368.3	478.54	819.15	285.23	426.9	759.42	298.81	466.64	824.79	356.38	446.6	739.82	102.4	424.99	766.37	106.52	330.35	668.56	72.1	368.51	681.14	42.135	339.32	677.94	41.937	403.86	869.74	35.72	457.44	899.43	39.577	333.3	963.23	58.58	387.06	569.74	656.89	112.66	652.8	590.34	82.443	586.43	567.28	118.82	629.05	683	80.501	627.99	490.17	87.731	690.4	474.04	224.37	508.03	431.98	82.194	485.72	323.85	103.93	449.66	375.53	90.279	541.37	376.13	91.244	289.2	238.87	138.05	327.04	229.07	229.6	226.44	275.06	192.28	218.16	253.7	228.7	207.57	250.73	167.06	319.48	82.412	122.68	355.2	74.31	241.05	402.06	40.394	185.19	548.71	1563	314.87	450.76	1243.7	326.3
367	1.525	761.31	1239.5	292.11	657.52	1492.8	472.86	628.13	1510.9	142.69	638.94	1820.7	307.42	714.86	999.62	445.38	706.54	987.52	179.15	474.46	1038	360.17	468.84	1033.3	256.2	646.47	950.76	529.59	598.25	939.3	102.36	628.17	1096	513.97	596.92	1071	107.65	459.55	998.28	307.86	742.66	657.31	495.71	831.98	617.52	461.41	775.22	578.25	468.83	802.69	699.26	489.5	820.35	527.81	456.84	811.52	534.62	315.93	769.36	368.14	478.68	820.7	284.69	427.08	761.04	298.69	466.79	826.88	355.79	446.82	739.9	102.38	424.96	766.4	106.48	330.31	668.55	72.107	368.53	681.13	42.154	339.33	677.94	41.944	403.87	869.74	35.758	457.49	899.42	39.558	333.31	963.23	58.476	387.08	578.4	656.78	112.85	662.01	591.2	81.731	596.3	567.36	118.84	637.15	683.57	80.118	638.89	491.27	86.939	702.13	475.24	223.63	519.28	434.28	81.574	495.92	326.3	103.45	460.31	378.38	89.745	552.06	378.04	90.69	298.55	243.81	137.79	336.57	232.87	229.17	236.57	280.84	192.47	227.96	259.38	228.8	217.11	256.98	167.19	325.96	86.518	121.35	362.43	76.928	239.34	408.11	41.51	183.01	553.84	1563.5	315.69	456.07	1244.2	327.01
368	1.5292	766.47	1240.1	292.13	662.96	1493.2	473.32	632.9	1511.7	143.21	644.21	1821.4	308.36	720.37	1000.1	445.56	711.6	987.98	179.27	479.8	1038.5	360.7	474.05	1033.6	256.74	652.17	951.38	529.87	603.37	939.64	102.63	633.69	1096.6	514.32	601.59	1071.4	108.04	464.83	998.68	308.5	746.7	657.26	496.02	835.82	616.97	461.7	778.81	578.02	469.11	807	698.87	489.84	823.55	527.25	457.12	814.82	534.16	316.21	771.33	367.99	478.83	822.14	284.18	427.26	762.54	298.59	466.95	828.82	355.24	447.05	739.98	102.37	424.94	766.42	106.47	330.29	668.54	72.111	368.56	681.12	42.173	339.33	677.93	41.946	403.89	869.74	35.801	457.55	899.41	39.575	333.33	963.21	58.425	387.12	587.03	656.83	113.09	671.17	592.22	81.119	606.12	567.62	118.96	645.22	684.28	79.792	649.69	492.55	86.252	713.67	476.65	223.02	530.45	436.61	81.065	506.18	328.77	103.05	470.96	381.19	89.309	562.75	380.05	90.222	308.07	248.54	137.65	346.3	236.45	228.81	246.81	286.16	192.84	237.96	264.53	229.05	226.81	262.74	167.47	333.02	90.624	119.92	370.25	79.486	237.5	414.82	42.847	180.65	558.96	1564	316.45	461.35	1244.7	327.69
369	1.5333	771.62	1240.8	292.1	668.39	1493.7	473.74	637.65	1512.5	143.69	649.48	1822.1	309.27	725.85	1000.7	445.7	716.63	988.53	179.36	485.12	1039.1	361.22	479.23	1034	257.27	657.82	952.06	530.13	608.45	940.09	102.88	639.21	1097.1	514.64	606.25	1071.8	108.39	470.08	999.19	309.12	750.62	657.27	496.33	839.51	616.44	461.96	782.24	577.83	469.38	811.19	698.5	490.15	826.58	526.71	457.39	817.93	533.72	316.48	773.17	367.83	479	823.48	283.7	427.46	763.94	298.48	467.12	830.64	354.71	447.28	740.04	102.36	424.94	766.44	106.47	330.28	668.54	72.112	368.58	681.12	42.196	339.34	677.94	41.945	403.9	869.74	35.848	457.6	899.39	39.619	333.35	963.18	58.414	387.15	595.62	657.04	113.37	680.28	593.39	80.604	615.91	568.06	119.17	653.25	685.13	79.521	660.38	494	85.667	725	478.28	222.56	541.52	438.98	80.671	516.49	331.24	102.72	481.61	383.95	88.974	573.42	382.14	89.835	317.75	253.03	137.61	356.24	239.79	228.53	257.13	290.98	193.36	248.12	269.13	229.43	236.68	267.99	167.88	340.66	94.682	118.4	378.68	81.953	235.55	422.21	44.382	178.13	564.07	1564.7	317.18	466.61	1245.3	328.33
370	1.5375	776.75	1241.6	292.02	673.8	1494.2	474.13	642.39	1513.3	144.12	654.75	1822.8	310.15	731.3	1001.3	445.8	721.64	989.18	179.41	490.41	1039.9	361.72	484.41	1034.5	257.79	663.41	952.78	530.35	613.52	940.66	103.11	644.73	1097.8	514.94	610.89	1072.4	108.7	475.31	999.8	309.72	754.4	657.31	496.63	843.06	615.94	462.2	785.52	577.68	469.65	815.25	698.16	490.42	829.43	526.19	457.66	820.84	533.29	316.74	774.89	367.68	479.18	824.73	283.25	427.65	765.25	298.39	467.3	832.33	354.21	447.51	740.1	102.36	424.95	766.47	106.49	330.28	668.53	72.116	368.61	681.12	42.224	339.35	677.94	41.944	403.92	869.73	35.894	457.65	899.37	39.68	333.38	963.15	58.431	387.2	604.17	657.42	113.68	689.37	594.71	80.179	625.66	568.67	119.45	661.26	686.13	79.301	670.96	495.62	85.183	736.13	480.1	222.22	552.49	441.38	80.392	526.86	333.71	102.47	492.24	386.66	88.74	584.06	384.31	89.522	327.59	257.24	137.66	366.38	242.86	228.32	267.53	295.28	194.03	258.44	273.15	229.93	246.7	272.7	168.43	348.88	98.642	116.82	387.69	84.301	233.52	430.28	46.08	175.49	569.18	1565.4	317.86	471.85	1245.9	328.95
371	1.5417	781.86	1242.5	291.89	679.19	1494.9	474.47	647.11	1514.3	144.51	660.02	1823.7	310.99	736.73	1002	445.88	726.64	989.94	179.43	495.68	1040.7	362.2	489.58	1035.1	258.28	668.95	953.55	530.55	618.56	941.35	103.32	650.24	1098.5	515.21	615.54	1073	108.98	480.51	1000.5	310.29	758.06	657.41	496.91	846.45	615.45	462.4	788.65	577.56	469.91	819.19	697.85	490.66	832.11	525.7	457.92	823.57	532.88	316.99	776.51	367.54	479.37	825.88	282.84	427.84	766.48	298.3	467.48	833.9	353.75	447.73	740.16	102.37	424.97	766.5	106.53	330.3	668.52	72.122	368.65	681.13	42.258	339.36	677.95	41.946	403.94	869.73	35.938	457.71	899.35	39.754	333.42	963.12	58.468	387.25	612.7	657.95	114.02	698.41	596.19	79.84	635.36	569.46	119.8	669.25	687.26	79.126	681.43	497.39	84.798	747.06	482.1	222.01	563.34	443.79	80.227	537.27	336.16	102.27	502.84	389.3	88.606	594.67	386.55	89.277	337.59	261.14	137.8	376.72	245.65	228.18	278.02	299.06	194.82	268.92	276.6	230.52	256.88	276.86	169.07	357.66	102.46	115.19	397.25	86.503	231.43	439.01	47.901	172.77	574.28	1566.2	318.5	477.06	1246.7	329.53
372	1.5458	786.96	1243.4	291.73	684.57	1495.6	474.77	651.82	1515.3	144.86	665.29	1824.6	311.8	742.13	1002.7	445.93	731.62	990.81	179.43	500.92	1041.6	362.67	494.73	1035.8	258.76	674.42	954.35	530.72	623.59	942.17	103.52	655.75	1099.4	515.46	620.19	1073.7	109.22	485.7	1001.3	310.82	761.6	657.54	497.18	849.71	614.99	462.58	791.64	577.48	470.15	823.02	697.56	490.86	834.63	525.24	458.16	826.13	532.49	317.23	778.02	367.4	479.56	826.96	282.46	428.02	767.63	298.22	467.67	835.37	353.32	447.94	740.21	102.38	425	766.53	106.59	330.32	668.51	72.135	368.69	681.14	42.301	339.37	677.96	41.951	403.96	869.73	35.978	457.76	899.33	39.834	333.45	963.09	58.518	387.3	621.2	658.65	114.36	707.43	597.81	79.579	645.02	570.43	120.2	677.23	688.54	78.99	691.78	499.31	84.505	757.8	484.29	221.89	574.07	446.21	80.173	547.72	338.57	102.12	513.42	391.86	88.566	605.25	388.83	89.092	347.75	264.72	138.01	387.25	248.15	228.09	288.59	302.3	195.7	279.55	279.48	231.2	267.2	280.44	169.8	367	106.07	113.55	407.36	88.539	229.31	448.39	49.801	170.01	579.37	1567.1	319.1	482.24	1247.5	330.09
373	1.55	792.05	1244.4	291.52	689.94	1496.4	475.04	656.52	1516.4	145.17	670.56	1825.7	312.58	747.51	1003.5	445.96	736.59	991.79	179.41	506.15	1042.5	363.12	499.88	1036.6	259.22	679.83	955.18	530.87	628.61	943.11	103.71	661.25	1100.3	515.69	624.87	1074.6	109.44	490.86	1002.2	311.33	765.03	657.72	497.43	852.84	614.55	462.74	794.48	577.43	470.38	826.73	697.31	491.02	837.01	524.82	458.39	828.52	532.13	317.45	779.44	367.28	479.75	827.95	282.11	428.19	768.7	298.15	467.86	836.73	352.92	448.14	740.27	102.39	425.04	766.57	106.66	330.35	668.51	72.153	368.73	681.16	42.352	339.38	677.98	41.961	403.99	869.73	36.014	457.81	899.3	39.918	333.49	963.06	58.574	387.35	629.67	659.5	114.7	716.41	599.59	79.39	654.63	571.55	120.63	685.19	689.95	78.887	702.03	501.37	84.301	768.36	486.64	221.87	584.69	448.62	80.224	558.22	340.93	102.02	523.97	394.32	88.615	615.79	391.16	88.96	358.08	267.92	138.27	397.96	250.33	228.04	299.24	305	196.64	290.31	281.79	231.92	277.66	283.46	170.57	376.88	109.45	111.91	417.99	90.391	227.21	458.39	51.739	167.27	584.46	1568	319.65	487.39	1248.4	330.63
